
<svg width="200" height="50" viewBox="0 0 200 50" fill="none" xmlns="http://www.w3.org/2000/svg">
  <path d="M35 25C35 31.9036 29.4036 37.5 22.5 37.5C15.5964 37.5 10 31.9036 10 25C10 18.0964 15.5964 12.5 22.5 12.5C29.4036 12.5 35 18.0964 35 25Z" fill="#0EA5E9"/>
  <path d="M30 25C30 29.1421 26.6421 32.5 22.5 32.5C18.3579 32.5 15 29.1421 15 25C15 20.8579 18.3579 17.5 22.5 17.5C26.6421 17.5 30 20.8579 30 25Z" fill="white"/>
  <path d="M25 25C25 26.3807 23.8807 27.5 22.5 27.5C21.1193 27.5 20 26.3807 20 25C20 23.6193 21.1193 22.5 22.5 22.5C23.8807 22.5 25 23.6193 25 25Z" fill="#0EA5E9"/>
  <path d="M45 15H50L45 35H40L45 15Z" fill="#0EA5E9"/>
  <path d="M52 15H57L54.5 27.5L62 15H68L58 30.5V35H53V30.5L52 15Z" fill="#0EA5E9"/>
  <path d="M70 15H75L72.5 28H80L79 35H66L70 15Z" fill="#0EA5E9"/>
  <path d="M83 15H97L96 20H89L88.5 22.5H95.5L94.5 27.5H87.5L87 30H94L93 35H79L83 15Z" fill="#0EA5E9"/>
  <path d="M98 15H103L99 35H94L98 15Z" fill="#0EA5E9"/>
  <path d="M105 15H116.5C119 15 120.5 16 120 18.5L119 22.5C118.5 25 116 26 113.5 26H108.5L107 35H102L105 15ZM110 22.5H113.5L114 18.5H110.5L110 22.5Z" fill="#0EA5E9"/>
  <path d="M121 15H135L134 20H127L126.5 22.5H133.5L132.5 27.5H125.5L125 30H132L131 35H117L121 15Z" fill="#0EA5E9"/>
  <path d="M136 15H141L140 20H147L148 15H153L149 35H144L145 25H138L136 35H131L136 15Z" fill="#0EA5E9"/>
  <path d="M154 15H159L157 25L164.5 15H170.5L160 28L163 35H157L155 30L153 35H148L154 15Z" fill="#0EA5E9"/>
  <path d="M171 15H176L172 35H167L171 15Z" fill="#0EA5E9"/>
  <path d="M178 15H191C193.5 15 194.5 16 194 18.5L193 22.5C192.5 24 191.5 25 189.5 25.5L193 35H187.5L184.5 26H183L181.5 35H176.5L180.5 15H178ZM183.5 22.5H187.5C188 22.5 188.5 22 188.5 21.5L189 19C189 18.5 188.5 18 188 18H184L183.5 22.5Z" fill="#0EA5E9"/>
</svg>
